<svg width="16" height="16" viewBox="0 0 16 16" fill="none" xmlns="http://www.w3.org/2000/svg">
<g clip-path="url(#clip0_59_475)">
<path fill-rule="evenodd" clip-rule="evenodd" d="M11.2289 4.36529C10.4029 3.57749 9.30054 3.14831 8.16 3.16595C6.07292 3.16595 4.30037 4.57399 3.66836 6.46999V6.47003C3.33325 7.4636 3.33325 8.53947 3.66836 9.53304H3.67129C4.30624 11.4261 6.07585 12.8342 8.16294 12.8342C9.24029 12.8342 10.1652 12.5586 10.882 12.0719V12.0699C11.7257 11.5114 12.3018 10.6325 12.4812 9.63888H8.16V6.55823H15.7059C15.7999 7.09323 15.844 7.63998 15.844 8.1838C15.844 10.617 14.9744 12.6742 13.4614 14.0676L13.463 14.0688C12.1372 15.2916 10.3176 16.0001 8.16 16.0001C5.13519 16.0001 2.36907 14.2951 1.011 11.5937V11.5937C-0.123663 9.33315 -0.123661 6.66992 1.011 4.4094H1.01102L1.011 4.40938C2.36907 1.70499 5.13519 5.08294e-05 8.16 5.08294e-05C10.1471 -0.0234656 12.0667 0.723182 13.5129 2.08126L11.2289 4.36529Z" fill="#AFBFE0"/>
</g>
<defs>
<clipPath id="clip0_59_475">
<rect width="16" height="16" fill="white"/>
</clipPath>
</defs>
</svg>
